<svg xmlns="http://www.w3.org/2000/svg" viewBox="0 0 1200 1000" font-family="Inter, -apple-system, sans-serif">
  <defs>
    <linearGradient id="bg" x1="0" y1="0" x2="1200" y2="1000" gradientUnits="userSpaceOnUse">
      <stop offset="0%" stop-color="#0f172a"/><stop offset="100%" stop-color="#1a2332"/>
    </linearGradient>
    <filter id="sh"><feDropShadow dx="0" dy="2" stdDeviation="3" flood-opacity="0.25"/></filter>
    <marker id="ar" markerWidth="7" markerHeight="5" refX="7" refY="2.5" orient="auto"><path d="M0,0 L7,2.5 L0,5" fill="#475569"/></marker>
    <marker id="ar-blue" markerWidth="7" markerHeight="5" refX="7" refY="2.5" orient="auto"><path d="M0,0 L7,2.5 L0,5" fill="#0078d4"/></marker>
  </defs>

  <rect width="1200" height="1000" fill="url(#bg)" rx="16"/>

  <!-- ═══════════ ROW 0: TITLE ═══════════ -->
  <text x="600" y="36" text-anchor="middle" font-size="22" font-weight="800" fill="#f1f5f9">Azure AKS &#x2014; Multi-AZ High Availability Architecture</text>
  <text x="600" y="58" text-anchor="middle" font-size="13" fill="#64748b">3 Availability Zones &#x2022; Zone-Redundant &#x2022; 99.99% SLA &#x2022; Automatic Failover</text>

  <!-- ═══════════ ROW 1: AKS CONTROL PLANE (Azure-Managed, OUTSIDE VNet) ═══════════ -->
  <rect x="50" y="74" width="1100" height="108" rx="10" fill="rgba(0,120,212,0.06)" stroke="#0078d4" stroke-width="1.8" stroke-dasharray="8,4"/>
  <rect x="58" y="78" width="340" height="20" rx="4" fill="#0078d4"/>
  <text x="228" y="92" text-anchor="middle" font-size="10" font-weight="700" fill="#fff">Azure-Managed Control Plane (outside your VNet)</text>
  <text x="600" y="108" text-anchor="middle" font-size="10" fill="#94a3b8">Zone-redundant with Standard tier (99.95% SLA) or Premium tier (99.99% SLA)</text>

  <!-- Control plane components -->
  <rect x="80" y="120" width="130" height="28" rx="5" fill="#1e293b" stroke="#0078d4" stroke-width="1.2" filter="url(#sh)"/>
  <text x="145" y="138" text-anchor="middle" font-size="10" font-weight="700" fill="#0078d4">API Server (HA)</text>

  <rect x="230" y="120" width="170" height="28" rx="5" fill="#1e293b" stroke="#0078d4" stroke-width="1.2" filter="url(#sh)"/>
  <text x="315" y="138" text-anchor="middle" font-size="10" font-weight="700" fill="#0078d4">etcd (zone-distributed)</text>

  <rect x="420" y="120" width="110" height="28" rx="5" fill="#1e293b" stroke="#0078d4" stroke-width="1.2" filter="url(#sh)"/>
  <text x="475" y="138" text-anchor="middle" font-size="10" font-weight="700" fill="#0078d4">Scheduler</text>

  <rect x="550" y="120" width="130" height="28" rx="5" fill="#1e293b" stroke="#0078d4" stroke-width="1.2" filter="url(#sh)"/>
  <text x="615" y="138" text-anchor="middle" font-size="10" font-weight="700" fill="#0078d4">Controller Mgr</text>

  <rect x="720" y="120" width="240" height="28" rx="5" fill="#1e293b" stroke="#fbbf24" stroke-width="1.2" filter="url(#sh)"/>
  <text x="840" y="138" text-anchor="middle" font-size="10" font-weight="700" fill="#fbbf24">Azure AD / Entra ID (OIDC Issuer)</text>

  <text x="1080" y="138" text-anchor="middle" font-size="9" fill="#64748b">Workload Identity</text>

  <!-- Arrow from control plane to VNet -->
  <line x1="600" y1="182" x2="600" y2="208" stroke="#0078d4" stroke-width="1.5" marker-end="url(#ar-blue)" stroke-dasharray="4,2"/>
  <text x="700" y="200" font-size="9" fill="#0078d4" font-weight="600">Private link / tunnel to AKS subnet</text>

  <!-- ═══════════ Azure Cloud boundary ═══════════ -->
  <rect x="30" y="210" width="1140" height="720" rx="12" fill="none" stroke="#0078d4" stroke-width="1.5" stroke-dasharray="8,4"/>
  <rect x="38" y="214" width="160" height="22" rx="4" fill="#0078d4"/>
  <text x="118" y="229" text-anchor="middle" font-size="11" font-weight="700" fill="#fff">Azure eastus</text>
  <text x="1060" y="229" font-size="10" fill="#64748b" font-weight="600" text-anchor="end">VNet 10.0.0.0/16</text>

  <!-- ═══════════ ROW 2: APP GATEWAY v2 (zone-redundant, spans all zones) ═══════════ -->
  <rect x="200" y="244" width="800" height="42" rx="8" fill="#1e293b" stroke="#0078d4" stroke-width="1.5" filter="url(#sh)"/>
  <text x="600" y="266" text-anchor="middle" font-size="13" font-weight="700" fill="#0078d4">Application Gateway v2 (Zone-Redundant)</text>
  <text x="600" y="280" text-anchor="middle" font-size="9" fill="#64748b">Zones [1,2,3] &#x2022; HTTPS :443 &#x2022; WAF v2 &#x2022; Autoscale 2-10 &#x2022; Zone-Redundant Public IP</text>

  <!-- ═══════════ ROW 3: THREE ZONE COLUMNS ═══════════ -->
  <!-- Zone 1 column -->
  <rect x="50" y="298" width="356" height="250" rx="8" fill="rgba(0,120,212,0.04)" stroke="#60a5fa" stroke-width="1" stroke-dasharray="4,3"/>
  <rect x="58" y="302" width="150" height="22" rx="4" fill="rgba(0,120,212,0.15)"/>
  <text x="133" y="317" text-anchor="middle" font-size="11" font-weight="700" fill="#60a5fa">Availability Zone 1</text>

  <!-- Zone 2 column -->
  <rect x="422" y="298" width="356" height="250" rx="8" fill="rgba(139,92,246,0.04)" stroke="#a78bfa" stroke-width="1" stroke-dasharray="4,3"/>
  <rect x="430" y="302" width="150" height="22" rx="4" fill="rgba(139,92,246,0.15)"/>
  <text x="505" y="317" text-anchor="middle" font-size="11" font-weight="700" fill="#a78bfa">Availability Zone 2</text>

  <!-- Zone 3 column -->
  <rect x="794" y="298" width="356" height="250" rx="8" fill="rgba(16,185,129,0.04)" stroke="#34d399" stroke-width="1" stroke-dasharray="4,3"/>
  <rect x="802" y="302" width="150" height="22" rx="4" fill="rgba(16,185,129,0.15)"/>
  <text x="877" y="317" text-anchor="middle" font-size="11" font-weight="700" fill="#34d399">Availability Zone 3</text>

  <!-- NAT Gateway (zone-redundant, single gateway spanning all zones) -->
  <rect x="350" y="330" width="500" height="30" rx="6" fill="#1e293b" stroke="#f59e0b" stroke-width="1.2" filter="url(#sh)"/>
  <text x="600" y="350" text-anchor="middle" font-size="10" font-weight="700" fill="#f59e0b">NAT Gateway (Zone-Redundant Public IP) &#x2014; Single gateway, NOT per-AZ</text>

  <!-- AKS Subnet label -->
  <text x="228" y="380" text-anchor="middle" font-size="9" font-weight="600" fill="#0078d4">AKS Subnet 10.0.1.0/22</text>

  <!-- AKS Nodes Zone 1 -->
  <rect x="70" y="388" width="316" height="130" rx="7" fill="#1e293b" stroke="#60a5fa" stroke-width="1" filter="url(#sh)"/>
  <text x="228" y="408" text-anchor="middle" font-size="11" font-weight="700" fill="#60a5fa">AKS Worker Nodes (Zone 1)</text>
  <rect x="85" y="416" width="76" height="24" rx="4" fill="rgba(59,130,246,0.1)" stroke="#60a5fa" stroke-width="0.7"/>
  <text x="123" y="432" text-anchor="middle" font-size="8" font-weight="600" fill="#60a5fa">ecom</text>
  <rect x="169" y="416" width="76" height="24" rx="4" fill="rgba(52,211,153,0.1)" stroke="#34d399" stroke-width="0.7"/>
  <text x="207" y="432" text-anchor="middle" font-size="8" font-weight="600" fill="#34d399">inventory</text>
  <rect x="253" y="416" width="50" height="24" rx="4" fill="rgba(167,139,250,0.1)" stroke="#a78bfa" stroke-width="0.7"/>
  <text x="278" y="432" text-anchor="middle" font-size="8" font-weight="600" fill="#a78bfa">UI</text>
  <rect x="311" y="416" width="60" height="24" rx="4" fill="rgba(248,113,113,0.1)" stroke="#f87171" stroke-width="0.7"/>
  <text x="341" y="432" text-anchor="middle" font-size="8" font-weight="600" fill="#f87171">CSRF</text>
  <rect x="85" y="448" width="76" height="24" rx="4" fill="rgba(251,191,36,0.1)" stroke="#fbbf24" stroke-width="0.7"/>
  <text x="123" y="464" text-anchor="middle" font-size="8" font-weight="600" fill="#fbbf24">Keycloak</text>
  <rect x="169" y="448" width="76" height="24" rx="4" fill="rgba(251,146,60,0.1)" stroke="#fb923c" stroke-width="0.7"/>
  <text x="207" y="464" text-anchor="middle" font-size="8" font-weight="600" fill="#fb923c">Flink</text>
  <rect x="253" y="448" width="76" height="24" rx="4" fill="rgba(230,82,111,0.1)" stroke="#E6526F" stroke-width="0.7"/>
  <text x="291" y="464" text-anchor="middle" font-size="8" font-weight="600" fill="#E6526F">Debezium</text>
  <text x="228" y="506" text-anchor="middle" font-size="8" fill="#64748b">topologySpreadConstraints &#x2022; PDB</text>

  <!-- AKS Nodes Zone 2 -->
  <rect x="442" y="388" width="316" height="130" rx="7" fill="#1e293b" stroke="#a78bfa" stroke-width="1" filter="url(#sh)"/>
  <text x="600" y="408" text-anchor="middle" font-size="11" font-weight="700" fill="#a78bfa">AKS Worker Nodes (Zone 2)</text>
  <rect x="457" y="416" width="76" height="24" rx="4" fill="rgba(59,130,246,0.1)" stroke="#60a5fa" stroke-width="0.7"/>
  <text x="495" y="432" text-anchor="middle" font-size="8" font-weight="600" fill="#60a5fa">ecom</text>
  <rect x="541" y="416" width="76" height="24" rx="4" fill="rgba(52,211,153,0.1)" stroke="#34d399" stroke-width="0.7"/>
  <text x="579" y="432" text-anchor="middle" font-size="8" font-weight="600" fill="#34d399">inventory</text>
  <rect x="625" y="416" width="50" height="24" rx="4" fill="rgba(167,139,250,0.1)" stroke="#a78bfa" stroke-width="0.7"/>
  <text x="650" y="432" text-anchor="middle" font-size="8" font-weight="600" fill="#a78bfa">UI</text>
  <rect x="683" y="416" width="60" height="24" rx="4" fill="rgba(248,113,113,0.1)" stroke="#f87171" stroke-width="0.7"/>
  <text x="713" y="432" text-anchor="middle" font-size="8" font-weight="600" fill="#f87171">CSRF</text>
  <rect x="457" y="448" width="76" height="24" rx="4" fill="rgba(251,191,36,0.1)" stroke="#fbbf24" stroke-width="0.7"/>
  <text x="495" y="464" text-anchor="middle" font-size="8" font-weight="600" fill="#fbbf24">Keycloak</text>
  <rect x="541" y="448" width="76" height="24" rx="4" fill="rgba(251,146,60,0.1)" stroke="#fb923c" stroke-width="0.7"/>
  <text x="579" y="464" text-anchor="middle" font-size="8" font-weight="600" fill="#fb923c">Superset</text>
  <rect x="625" y="448" width="76" height="24" rx="4" fill="rgba(79,195,247,0.1)" stroke="#4fc3f7" stroke-width="0.7"/>
  <text x="663" y="464" text-anchor="middle" font-size="8" font-weight="600" fill="#4fc3f7">PgAdmin</text>
  <text x="600" y="506" text-anchor="middle" font-size="8" fill="#64748b">topologySpreadConstraints &#x2022; PDB</text>

  <!-- AKS Nodes Zone 3 -->
  <rect x="814" y="388" width="316" height="130" rx="7" fill="#1e293b" stroke="#34d399" stroke-width="1" filter="url(#sh)"/>
  <text x="972" y="408" text-anchor="middle" font-size="11" font-weight="700" fill="#34d399">AKS Worker Nodes (Zone 3)</text>
  <rect x="829" y="416" width="76" height="24" rx="4" fill="rgba(59,130,246,0.1)" stroke="#60a5fa" stroke-width="0.7"/>
  <text x="867" y="432" text-anchor="middle" font-size="8" font-weight="600" fill="#60a5fa">ecom</text>
  <rect x="913" y="416" width="76" height="24" rx="4" fill="rgba(52,211,153,0.1)" stroke="#34d399" stroke-width="0.7"/>
  <text x="951" y="432" text-anchor="middle" font-size="8" font-weight="600" fill="#34d399">inventory</text>
  <rect x="997" y="416" width="50" height="24" rx="4" fill="rgba(167,139,250,0.1)" stroke="#a78bfa" stroke-width="0.7"/>
  <text x="1022" y="432" text-anchor="middle" font-size="8" font-weight="600" fill="#a78bfa">UI</text>
  <rect x="1055" y="416" width="60" height="24" rx="4" fill="rgba(248,113,113,0.1)" stroke="#f87171" stroke-width="0.7"/>
  <text x="1085" y="432" text-anchor="middle" font-size="8" font-weight="600" fill="#f87171">CSRF</text>
  <rect x="829" y="448" width="76" height="24" rx="4" fill="rgba(251,191,36,0.1)" stroke="#fbbf24" stroke-width="0.7"/>
  <text x="867" y="464" text-anchor="middle" font-size="8" font-weight="600" fill="#fbbf24">Keycloak</text>
  <rect x="913" y="448" width="76" height="24" rx="4" fill="rgba(251,146,60,0.1)" stroke="#fb923c" stroke-width="0.7"/>
  <text x="951" y="464" text-anchor="middle" font-size="8" font-weight="600" fill="#fb923c">Flink</text>
  <rect x="997" y="448" width="76" height="24" rx="4" fill="rgba(230,82,111,0.1)" stroke="#E6526F" stroke-width="0.7"/>
  <text x="1035" y="464" text-anchor="middle" font-size="8" font-weight="600" fill="#E6526F">Debezium</text>
  <text x="972" y="506" text-anchor="middle" font-size="8" fill="#64748b">topologySpreadConstraints &#x2022; PDB</text>

  <!-- ═══════════ ROW 4: ISTIO BAR ═══════════ -->
  <rect x="50" y="552" width="1100" height="26" rx="5" fill="rgba(70,107,176,0.1)" stroke="#466BB0" stroke-width="1"/>
  <text x="600" y="570" text-anchor="middle" font-size="10" font-weight="600" fill="#466BB0">Istio Ambient Mesh &#x2014; mTLS STRICT across all Zones &#x2022; Cross-zone service discovery &#x2022; L4/L7 traffic management</text>

  <!-- ═══════════ ROW 5: POSTGRESQL (Zone-Redundant HA) ═══════════ -->
  <text x="228" y="600" text-anchor="middle" font-size="9" font-weight="600" fill="#336791">DB Subnet 10.0.10.0/24 (Delegated to PostgreSQL Flexible Server)</text>

  <!-- PostgreSQL Primary Zone 1 -->
  <rect x="70" y="610" width="316" height="100" rx="7" fill="#1e293b" stroke="#336791" stroke-width="1.2" filter="url(#sh)"/>
  <text x="228" y="630" text-anchor="middle" font-size="11" font-weight="700" fill="#336791">PostgreSQL Primary (Zone 1)</text>
  <rect x="85" y="638" width="130" height="24" rx="4" fill="rgba(51,103,145,0.15)" stroke="#336791" stroke-width="0.7"/>
  <text x="150" y="654" text-anchor="middle" font-size="8" font-weight="600" fill="#336791">ecom-db (Primary)</text>
  <rect x="225" y="638" width="145" height="24" rx="4" fill="rgba(51,103,145,0.15)" stroke="#336791" stroke-width="0.7"/>
  <text x="297" y="654" text-anchor="middle" font-size="8" font-weight="600" fill="#336791">inventory-db (Primary)</text>
  <rect x="85" y="670" width="130" height="24" rx="4" fill="rgba(51,103,145,0.15)" stroke="#336791" stroke-width="0.7"/>
  <text x="150" y="686" text-anchor="middle" font-size="8" font-weight="600" fill="#336791">analytics-db (Primary)</text>
  <rect x="225" y="670" width="145" height="24" rx="4" fill="rgba(51,103,145,0.15)" stroke="#336791" stroke-width="0.7"/>
  <text x="297" y="686" text-anchor="middle" font-size="8" font-weight="600" fill="#336791">keycloak-db (Primary)</text>

  <!-- PostgreSQL Standby Zone 2 -->
  <rect x="442" y="610" width="316" height="100" rx="7" fill="#1e293b" stroke="#a78bfa" stroke-width="1" filter="url(#sh)"/>
  <text x="600" y="630" text-anchor="middle" font-size="11" font-weight="700" fill="#a78bfa">PostgreSQL Standby (Zone 2)</text>
  <rect x="457" y="638" width="130" height="24" rx="4" fill="rgba(139,92,246,0.1)" stroke="#a78bfa" stroke-width="0.7"/>
  <text x="522" y="654" text-anchor="middle" font-size="8" font-weight="600" fill="#a78bfa">ecom-db (Standby)</text>
  <rect x="597" y="638" width="145" height="24" rx="4" fill="rgba(139,92,246,0.1)" stroke="#a78bfa" stroke-width="0.7"/>
  <text x="669" y="654" text-anchor="middle" font-size="8" font-weight="600" fill="#a78bfa">inventory-db (Standby)</text>
  <rect x="457" y="670" width="130" height="24" rx="4" fill="rgba(139,92,246,0.1)" stroke="#a78bfa" stroke-width="0.7"/>
  <text x="522" y="686" text-anchor="middle" font-size="8" font-weight="600" fill="#a78bfa">analytics-db (Standby)</text>
  <rect x="597" y="670" width="145" height="24" rx="4" fill="rgba(139,92,246,0.1)" stroke="#a78bfa" stroke-width="0.7"/>
  <text x="669" y="686" text-anchor="middle" font-size="8" font-weight="600" fill="#a78bfa">keycloak-db (Standby)</text>

  <!-- Replication arrows -->
  <line x1="386" y1="650" x2="442" y2="650" stroke="#a78bfa" stroke-width="1.2" marker-end="url(#ar)"/>
  <line x1="386" y1="682" x2="442" y2="682" stroke="#a78bfa" stroke-width="1.2" marker-end="url(#ar)"/>

  <!-- PG HA explanation Zone 3 -->
  <rect x="814" y="610" width="316" height="100" rx="7" fill="rgba(51,103,145,0.04)" stroke="#336791" stroke-width="0.8" stroke-dasharray="3,2"/>
  <text x="972" y="634" text-anchor="middle" font-size="11" font-weight="700" fill="#336791">Zone-Redundant HA Mode</text>
  <text x="972" y="654" text-anchor="middle" font-size="9" fill="#94a3b8">high_availability {</text>
  <text x="972" y="670" text-anchor="middle" font-size="9" fill="#10b981" font-weight="600">  mode = "ZoneRedundant"</text>
  <text x="972" y="686" text-anchor="middle" font-size="9" fill="#94a3b8">}</text>
  <text x="972" y="704" text-anchor="middle" font-size="9" fill="#64748b">Sync replication &#x2022; Auto-failover ~60-120s</text>

  <!-- ═══════════ ROW 6: MESSAGING / CACHE ═══════════ -->
  <!-- Event Hubs (zone-redundant, single box spanning all zones) -->
  <rect x="70" y="726" width="680" height="48" rx="7" fill="#1e293b" stroke="#e2e8f0" stroke-width="1" filter="url(#sh)"/>
  <text x="410" y="748" text-anchor="middle" font-size="12" font-weight="700" fill="#e2e8f0">Azure Event Hubs (Kafka Protocol) &#x2014; Zone-Redundant</text>
  <text x="410" y="766" text-anchor="middle" font-size="9" fill="#64748b">Premium Tier &#x2022; zone_redundant = true &#x2022; Azure manages partition distribution across all zones</text>

  <rect x="814" y="726" width="316" height="48" rx="7" fill="rgba(226,232,240,0.04)" stroke="#e2e8f0" stroke-width="0.8" stroke-dasharray="3,2"/>
  <text x="972" y="748" text-anchor="middle" font-size="10" font-weight="600" fill="#94a3b8">Partitions auto-distributed</text>
  <text x="972" y="764" text-anchor="middle" font-size="9" fill="#64748b">across Zone 1, 2, 3 by Azure</text>

  <!-- Redis Premium (zone-redundant) -->
  <rect x="70" y="788" width="316" height="42" rx="7" fill="#1e293b" stroke="#DC382D" stroke-width="1.2" filter="url(#sh)"/>
  <text x="228" y="808" text-anchor="middle" font-size="11" font-weight="700" fill="#DC382D">Redis Primary (Zone 1)</text>
  <text x="228" y="822" text-anchor="middle" font-size="9" fill="#64748b">Premium P1 &#x2022; TLS 1.2</text>

  <rect x="442" y="788" width="316" height="42" rx="7" fill="#1e293b" stroke="#DC382D" stroke-width="0.8" filter="url(#sh)"/>
  <text x="600" y="808" text-anchor="middle" font-size="11" font-weight="600" fill="#f87171">Redis Replica (Zone 2)</text>
  <text x="600" y="822" text-anchor="middle" font-size="9" fill="#64748b">Auto-failover</text>

  <rect x="814" y="788" width="316" height="42" rx="7" fill="#1e293b" stroke="#DC382D" stroke-width="0.8" filter="url(#sh)"/>
  <text x="972" y="808" text-anchor="middle" font-size="11" font-weight="600" fill="#f87171">Redis Replica (Zone 3)</text>
  <text x="972" y="822" text-anchor="middle" font-size="9" fill="#64748b">Auto-failover</text>

  <!-- Redis replication arrows -->
  <line x1="386" y1="809" x2="442" y2="809" stroke="#DC382D" stroke-width="1" marker-end="url(#ar)" stroke-dasharray="4,2"/>
  <line x1="758" y1="809" x2="814" y2="809" stroke="#DC382D" stroke-width="1" marker-end="url(#ar)" stroke-dasharray="4,2"/>

  <text x="600" y="848" text-anchor="middle" font-size="9" fill="#94a3b8">zones = [1, 2, 3] &#x2022; Premium tier required for zone redundancy &#x2022; Sentinel handles promotion</text>

  <!-- ═══════════ ROW 7: HA SUMMARY BAR ═══════════ -->
  <rect x="50" y="860" width="1100" height="36" rx="6" fill="rgba(16,185,129,0.06)" stroke="#10b981" stroke-width="1"/>
  <text x="600" y="883" text-anchor="middle" font-size="11" font-weight="700" fill="#10b981">HA Summary: AKS zones [1,2,3] &#x2022; Control Plane zone-redundant &#x2022; PostgreSQL ZoneRedundant &#x2022; Event Hubs zone-redundant &#x2022; Redis Premium 3-zone &#x2022; App GW v2</text>

  <!-- ═══════════ ROW 8: TERRAFORM PIPELINE ═══════════ -->
  <rect x="50" y="906" width="1100" height="54" rx="8" fill="rgba(16,185,129,0.03)" stroke="#10b981" stroke-width="0.8" stroke-dasharray="4,3"/>
  <text x="75" y="924" font-size="10" font-weight="700" fill="#10b981">Terraform Pipeline</text>
  <rect x="75" y="932" width="105" height="20" rx="4" fill="#1e293b" stroke="#10b981" stroke-width="0.8"/>
  <text x="127" y="946" text-anchor="middle" font-size="9" font-weight="600" fill="#10b981">terraform init</text>
  <line x1="180" y1="942" x2="198" y2="942" stroke="#64748b" stroke-width="1" marker-end="url(#ar)"/>
  <rect x="198" y="932" width="105" height="20" rx="4" fill="#1e293b" stroke="#10b981" stroke-width="0.8"/>
  <text x="250" y="946" text-anchor="middle" font-size="9" font-weight="600" fill="#10b981">terraform plan</text>
  <line x1="303" y1="942" x2="321" y2="942" stroke="#64748b" stroke-width="1" marker-end="url(#ar)"/>
  <rect x="321" y="932" width="110" height="20" rx="4" fill="#1e293b" stroke="#10b981" stroke-width="0.8"/>
  <text x="376" y="946" text-anchor="middle" font-size="9" font-weight="600" fill="#10b981">terraform apply</text>
  <line x1="431" y1="942" x2="449" y2="942" stroke="#64748b" stroke-width="1" marker-end="url(#ar)"/>
  <rect x="449" y="932" width="110" height="20" rx="4" fill="#1e293b" stroke="#ff9900" stroke-width="0.8"/>
  <text x="504" y="946" text-anchor="middle" font-size="9" font-weight="600" fill="#ff9900">Push to ACR</text>
  <line x1="559" y1="942" x2="577" y2="942" stroke="#64748b" stroke-width="1" marker-end="url(#ar)"/>
  <rect x="577" y="932" width="130" height="20" rx="4" fill="#1e293b" stroke="#0078d4" stroke-width="0.8"/>
  <text x="642" y="946" text-anchor="middle" font-size="9" font-weight="600" fill="#0078d4">Deploy K8s Apps</text>
  <line x1="707" y1="942" x2="725" y2="942" stroke="#64748b" stroke-width="1" marker-end="url(#ar)"/>
  <rect x="725" y="932" width="120" height="20" rx="4" fill="#1e293b" stroke="#ef4444" stroke-width="0.8"/>
  <text x="785" y="946" text-anchor="middle" font-size="9" font-weight="600" fill="#ef4444">Chaos Test Zone</text>
  <line x1="845" y1="942" x2="863" y2="942" stroke="#64748b" stroke-width="1" marker-end="url(#ar)"/>
  <rect x="863" y="932" width="120" height="20" rx="4" fill="#1e293b" stroke="#a78bfa" stroke-width="0.8"/>
  <text x="923" y="946" text-anchor="middle" font-size="9" font-weight="600" fill="#a78bfa">Smoke Test</text>
  <line x1="983" y1="942" x2="1001" y2="942" stroke="#64748b" stroke-width="1" marker-end="url(#ar)"/>
  <rect x="1001" y="932" width="110" height="20" rx="4" fill="#1e293b" stroke="#fbbf24" stroke-width="0.8"/>
  <text x="1056" y="946" text-anchor="middle" font-size="9" font-weight="600" fill="#fbbf24">Verify HA</text>

  <!-- ═══════════ FOOTER ═══════════ -->
  <text x="600" y="980" text-anchor="middle" font-size="10" fill="#475569">Every component zone-redundant &#x2022; 99.99% SLA with AZ spread &#x2022; Automatic failover at every layer</text>
  <text x="600" y="995" text-anchor="middle" font-size="11" fill="#64748b" font-weight="600">BookStore Platform &#x2022; Azure AKS Multi-AZ HA Architecture &#x2022; Terraform IaC</text>
</svg>