<svg xmlns="http://www.w3.org/2000/svg" viewBox="0 0 1200 1000" font-family="Inter, -apple-system, sans-serif">
  <defs>
    <linearGradient id="bg" x1="0" y1="0" x2="1200" y2="1000" gradientUnits="userSpaceOnUse">
      <stop offset="0%" stop-color="#0f172a"/><stop offset="100%" stop-color="#1a2332"/>
    </linearGradient>
    <filter id="sh"><feDropShadow dx="0" dy="2" stdDeviation="3" flood-opacity="0.2"/></filter>
    <marker id="ar" markerWidth="7" markerHeight="5" refX="7" refY="2.5" orient="auto"><path d="M0,0 L7,2.5 L0,5" fill="#475569"/></marker>
    <marker id="ar-cp" markerWidth="7" markerHeight="5" refX="7" refY="2.5" orient="auto"><path d="M0,0 L7,2.5 L0,5" fill="#ff9900"/></marker>
    <marker id="ar-db" markerWidth="7" markerHeight="5" refX="7" refY="2.5" orient="auto"><path d="M0,0 L7,2.5 L0,5" fill="#a78bfa"/></marker>
    <marker id="ar-red" markerWidth="7" markerHeight="5" refX="7" refY="2.5" orient="auto"><path d="M0,0 L7,2.5 L0,5" fill="#DC382D"/></marker>
  </defs>

  <rect width="1200" height="1000" fill="url(#bg)" rx="16"/>

  <!-- ═══════════ ROW 0: TITLE ═══════════ -->
  <text x="600" y="34" text-anchor="middle" font-size="22" font-weight="800" fill="#f1f5f9">AWS EKS &#x2014; Multi-AZ High Availability Architecture</text>
  <text x="600" y="56" text-anchor="middle" font-size="13" fill="#64748b">3 Availability Zones &#x2022; Zero SPOF &#x2022; Automatic Failover &#x2022; RPO~0 / RTO&lt;60s</text>

  <!-- ═══════════ ROW 1: EKS CONTROL PLANE (AWS-Managed, OUTSIDE VPC) ═══════════ -->
  <rect x="30" y="70" width="1140" height="108" rx="10" fill="rgba(255,153,0,0.04)" stroke="#ff9900" stroke-width="1.5" stroke-dasharray="6,3"/>
  <rect x="38" y="74" width="340" height="20" rx="4" fill="rgba(255,153,0,0.15)"/>
  <text x="208" y="88" text-anchor="middle" font-size="10" font-weight="700" fill="#ff9900">AWS-Managed Control Plane (outside your VPC)</text>
  <text x="600" y="104" text-anchor="middle" font-size="9" fill="#94a3b8">Runs in AWS-owned VPC spanning us-east-1a, us-east-1b, us-east-1c &#x2014; fully managed, no customer access</text>

  <!-- Control plane components -->
  <rect x="80" y="114" width="130" height="28" rx="5" fill="#1e293b" stroke="#ff9900" stroke-width="1" filter="url(#sh)"/>
  <text x="145" y="132" text-anchor="middle" font-size="10" font-weight="700" fill="#ff9900">API Server (HA)</text>

  <rect x="230" y="114" width="180" height="28" rx="5" fill="#1e293b" stroke="#ff9900" stroke-width="1" filter="url(#sh)"/>
  <text x="320" y="132" text-anchor="middle" font-size="10" font-weight="700" fill="#ff9900">etcd (3 replicas / 3 AZs)</text>

  <rect x="430" y="114" width="110" height="28" rx="5" fill="#1e293b" stroke="#ff9900" stroke-width="1" filter="url(#sh)"/>
  <text x="485" y="132" text-anchor="middle" font-size="10" font-weight="700" fill="#ff9900">Scheduler</text>

  <rect x="560" y="114" width="130" height="28" rx="5" fill="#1e293b" stroke="#ff9900" stroke-width="1" filter="url(#sh)"/>
  <text x="625" y="132" text-anchor="middle" font-size="10" font-weight="700" fill="#ff9900">Controller Mgr</text>

  <rect x="710" y="114" width="130" height="28" rx="5" fill="#1e293b" stroke="#ff9900" stroke-width="1" filter="url(#sh)"/>
  <text x="775" y="132" text-anchor="middle" font-size="10" font-weight="700" fill="#ff9900">Cloud Controller</text>

  <rect x="860" y="114" width="130" height="28" rx="5" fill="#1e293b" stroke="#ff9900" stroke-width="1" filter="url(#sh)"/>
  <text x="925" y="132" text-anchor="middle" font-size="10" font-weight="700" fill="#ff9900">Admission Ctrl</text>

  <text x="600" y="170" text-anchor="middle" font-size="9" fill="#ff9900">&#x2193; ENI cross-account connections into each AZ private subnet &#x2193;</text>

  <!-- ENI arrows from control plane into VPC -->
  <line x1="240" y1="178" x2="240" y2="212" stroke="#ff9900" stroke-width="1.2" stroke-dasharray="3,2" marker-end="url(#ar-cp)"/>
  <line x1="600" y1="178" x2="600" y2="212" stroke="#ff9900" stroke-width="1.2" stroke-dasharray="3,2" marker-end="url(#ar-cp)"/>
  <line x1="960" y1="178" x2="960" y2="212" stroke="#ff9900" stroke-width="1.2" stroke-dasharray="3,2" marker-end="url(#ar-cp)"/>

  <!-- ═══════════ ROW 2: ALB (Cross-Zone) ═══════════ -->
  <rect x="300" y="188" width="600" height="40" rx="8" fill="#1e293b" stroke="#ff9900" stroke-width="1.5" filter="url(#sh)"/>
  <text x="600" y="208" text-anchor="middle" font-size="13" font-weight="700" fill="#ff9900">Application Load Balancer (Cross-Zone)</text>
  <text x="600" y="222" text-anchor="middle" font-size="9" fill="#64748b">HTTPS :443 &#x2022; ACM TLS &#x2022; WAF v2 &#x2022; Health Checks &#x2022; Connection Draining</text>

  <!-- ═══════════ AWS Cloud + VPC boundary ═══════════ -->
  <rect x="30" y="182" width="1140" height="690" rx="12" fill="none" stroke="#3b82f6" stroke-width="1.2" stroke-dasharray="8,4"/>
  <rect x="38" y="186" width="120" height="18" rx="4" fill="rgba(59,130,246,0.15)"/>
  <text x="98" y="199" text-anchor="middle" font-size="9" font-weight="700" fill="#3b82f6">VPC 10.0.0.0/16</text>
  <text x="180" y="199" font-size="9" fill="#64748b">us-east-1</text>

  <!-- ═══════════ ROW 3: THREE AZ COLUMNS ═══════════ -->
  <!-- AZ-a column -->
  <rect x="50" y="234" width="356" height="330" rx="8" fill="rgba(59,130,246,0.03)" stroke="#60a5fa" stroke-width="1" stroke-dasharray="4,3"/>
  <rect x="58" y="238" width="150" height="20" rx="4" fill="rgba(59,130,246,0.15)"/>
  <text x="133" y="252" text-anchor="middle" font-size="10" font-weight="700" fill="#60a5fa">Availability Zone A</text>
  <text x="228" y="252" font-size="9" fill="#64748b">us-east-1a</text>

  <!-- AZ-b column -->
  <rect x="422" y="234" width="356" height="330" rx="8" fill="rgba(139,92,246,0.03)" stroke="#a78bfa" stroke-width="1" stroke-dasharray="4,3"/>
  <rect x="430" y="238" width="150" height="20" rx="4" fill="rgba(139,92,246,0.15)"/>
  <text x="505" y="252" text-anchor="middle" font-size="10" font-weight="700" fill="#a78bfa">Availability Zone B</text>
  <text x="600" y="252" font-size="9" fill="#64748b">us-east-1b</text>

  <!-- AZ-c column -->
  <rect x="794" y="234" width="356" height="330" rx="8" fill="rgba(16,185,129,0.03)" stroke="#34d399" stroke-width="1" stroke-dasharray="4,3"/>
  <rect x="802" y="238" width="150" height="20" rx="4" fill="rgba(16,185,129,0.15)"/>
  <text x="877" y="252" text-anchor="middle" font-size="10" font-weight="700" fill="#34d399">Availability Zone C</text>
  <text x="972" y="252" font-size="9" fill="#64748b">us-east-1c</text>

  <!-- PUBLIC SUBNETS -->
  <text x="228" y="274" text-anchor="middle" font-size="9" font-weight="600" fill="#10b981">Public 10.0.1.0/24</text>
  <text x="600" y="274" text-anchor="middle" font-size="9" font-weight="600" fill="#10b981">Public 10.0.2.0/24</text>
  <text x="972" y="274" text-anchor="middle" font-size="9" font-weight="600" fill="#10b981">Public 10.0.3.0/24</text>

  <!-- NAT Gateways (one per AZ) -->
  <rect x="148" y="282" width="160" height="36" rx="6" fill="#1e293b" stroke="#f59e0b" stroke-width="1" filter="url(#sh)"/>
  <text x="228" y="300" text-anchor="middle" font-size="10" font-weight="700" fill="#f59e0b">NAT Gateway A</text>
  <text x="228" y="312" text-anchor="middle" font-size="8" fill="#64748b">Elastic IP &#x2022; No SPOF</text>

  <rect x="520" y="282" width="160" height="36" rx="6" fill="#1e293b" stroke="#f59e0b" stroke-width="1" filter="url(#sh)"/>
  <text x="600" y="300" text-anchor="middle" font-size="10" font-weight="700" fill="#f59e0b">NAT Gateway B</text>
  <text x="600" y="312" text-anchor="middle" font-size="8" fill="#64748b">Elastic IP &#x2022; No SPOF</text>

  <rect x="892" y="282" width="160" height="36" rx="6" fill="#1e293b" stroke="#f59e0b" stroke-width="1" filter="url(#sh)"/>
  <text x="972" y="300" text-anchor="middle" font-size="10" font-weight="700" fill="#f59e0b">NAT Gateway C</text>
  <text x="972" y="312" text-anchor="middle" font-size="8" fill="#64748b">Elastic IP &#x2022; No SPOF</text>

  <text x="600" y="332" text-anchor="middle" font-size="8" fill="#94a3b8">1 NAT GW per AZ &#x2014; if AZ-a NAT fails, AZ-b and AZ-c continue independently (no cross-AZ dependency)</text>

  <!-- PRIVATE SUBNETS -->
  <text x="228" y="348" text-anchor="middle" font-size="9" font-weight="600" fill="#3b82f6">Private 10.0.10.0/24</text>
  <text x="600" y="348" text-anchor="middle" font-size="9" font-weight="600" fill="#3b82f6">Private 10.0.20.0/24</text>
  <text x="972" y="348" text-anchor="middle" font-size="9" font-weight="600" fill="#3b82f6">Private 10.0.30.0/24</text>

  <!-- EKS Worker Nodes AZ-a -->
  <rect x="68" y="356" width="320" height="120" rx="7" fill="#1e293b" stroke="#60a5fa" stroke-width="1" filter="url(#sh)"/>
  <text x="228" y="374" text-anchor="middle" font-size="11" font-weight="700" fill="#60a5fa">EKS Worker Nodes (Zone A)</text>
  <rect x="82" y="382" width="72" height="24" rx="4" fill="rgba(59,130,246,0.1)" stroke="#60a5fa" stroke-width="0.7"/>
  <text x="118" y="398" text-anchor="middle" font-size="8" font-weight="600" fill="#60a5fa">ecom</text>
  <rect x="162" y="382" width="72" height="24" rx="4" fill="rgba(52,211,153,0.1)" stroke="#34d399" stroke-width="0.7"/>
  <text x="198" y="398" text-anchor="middle" font-size="8" font-weight="600" fill="#34d399">inventory</text>
  <rect x="242" y="382" width="48" height="24" rx="4" fill="rgba(167,139,250,0.1)" stroke="#a78bfa" stroke-width="0.7"/>
  <text x="266" y="398" text-anchor="middle" font-size="8" font-weight="600" fill="#a78bfa">UI</text>
  <rect x="298" y="382" width="72" height="24" rx="4" fill="rgba(248,113,113,0.1)" stroke="#f87171" stroke-width="0.7"/>
  <text x="334" y="398" text-anchor="middle" font-size="8" font-weight="600" fill="#f87171">CSRF</text>
  <rect x="82" y="414" width="72" height="24" rx="4" fill="rgba(251,191,36,0.1)" stroke="#fbbf24" stroke-width="0.7"/>
  <text x="118" y="430" text-anchor="middle" font-size="8" font-weight="600" fill="#fbbf24">Keycloak</text>
  <rect x="162" y="414" width="72" height="24" rx="4" fill="rgba(251,146,60,0.1)" stroke="#fb923c" stroke-width="0.7"/>
  <text x="198" y="430" text-anchor="middle" font-size="8" font-weight="600" fill="#fb923c">Flink</text>
  <rect x="242" y="414" width="72" height="24" rx="4" fill="rgba(230,82,111,0.1)" stroke="#E6526F" stroke-width="0.7"/>
  <text x="278" y="430" text-anchor="middle" font-size="8" font-weight="600" fill="#E6526F">Debezium</text>
  <text x="228" y="468" text-anchor="middle" font-size="8" fill="#64748b">topologySpreadConstraints &#x2022; PDB</text>

  <!-- EKS Worker Nodes AZ-b -->
  <rect x="440" y="356" width="320" height="120" rx="7" fill="#1e293b" stroke="#a78bfa" stroke-width="1" filter="url(#sh)"/>
  <text x="600" y="374" text-anchor="middle" font-size="11" font-weight="700" fill="#a78bfa">EKS Worker Nodes (Zone B)</text>
  <rect x="454" y="382" width="72" height="24" rx="4" fill="rgba(59,130,246,0.1)" stroke="#60a5fa" stroke-width="0.7"/>
  <text x="490" y="398" text-anchor="middle" font-size="8" font-weight="600" fill="#60a5fa">ecom</text>
  <rect x="534" y="382" width="72" height="24" rx="4" fill="rgba(52,211,153,0.1)" stroke="#34d399" stroke-width="0.7"/>
  <text x="570" y="398" text-anchor="middle" font-size="8" font-weight="600" fill="#34d399">inventory</text>
  <rect x="614" y="382" width="48" height="24" rx="4" fill="rgba(167,139,250,0.1)" stroke="#a78bfa" stroke-width="0.7"/>
  <text x="638" y="398" text-anchor="middle" font-size="8" font-weight="600" fill="#a78bfa">UI</text>
  <rect x="670" y="382" width="72" height="24" rx="4" fill="rgba(248,113,113,0.1)" stroke="#f87171" stroke-width="0.7"/>
  <text x="706" y="398" text-anchor="middle" font-size="8" font-weight="600" fill="#f87171">CSRF</text>
  <rect x="454" y="414" width="72" height="24" rx="4" fill="rgba(251,191,36,0.1)" stroke="#fbbf24" stroke-width="0.7"/>
  <text x="490" y="430" text-anchor="middle" font-size="8" font-weight="600" fill="#fbbf24">Keycloak</text>
  <rect x="534" y="414" width="72" height="24" rx="4" fill="rgba(251,146,60,0.1)" stroke="#fb923c" stroke-width="0.7"/>
  <text x="570" y="430" text-anchor="middle" font-size="8" font-weight="600" fill="#fb923c">Superset</text>
  <rect x="614" y="414" width="72" height="24" rx="4" fill="rgba(79,195,247,0.1)" stroke="#4fc3f7" stroke-width="0.7"/>
  <text x="650" y="430" text-anchor="middle" font-size="8" font-weight="600" fill="#4fc3f7">PgAdmin</text>
  <text x="600" y="468" text-anchor="middle" font-size="8" fill="#64748b">topologySpreadConstraints &#x2022; PDB</text>

  <!-- EKS Worker Nodes AZ-c -->
  <rect x="812" y="356" width="320" height="120" rx="7" fill="#1e293b" stroke="#34d399" stroke-width="1" filter="url(#sh)"/>
  <text x="972" y="374" text-anchor="middle" font-size="11" font-weight="700" fill="#34d399">EKS Worker Nodes (Zone C)</text>
  <rect x="826" y="382" width="72" height="24" rx="4" fill="rgba(59,130,246,0.1)" stroke="#60a5fa" stroke-width="0.7"/>
  <text x="862" y="398" text-anchor="middle" font-size="8" font-weight="600" fill="#60a5fa">ecom</text>
  <rect x="906" y="382" width="72" height="24" rx="4" fill="rgba(52,211,153,0.1)" stroke="#34d399" stroke-width="0.7"/>
  <text x="942" y="398" text-anchor="middle" font-size="8" font-weight="600" fill="#34d399">inventory</text>
  <rect x="986" y="382" width="48" height="24" rx="4" fill="rgba(167,139,250,0.1)" stroke="#a78bfa" stroke-width="0.7"/>
  <text x="1010" y="398" text-anchor="middle" font-size="8" font-weight="600" fill="#a78bfa">UI</text>
  <rect x="1042" y="382" width="72" height="24" rx="4" fill="rgba(248,113,113,0.1)" stroke="#f87171" stroke-width="0.7"/>
  <text x="1078" y="398" text-anchor="middle" font-size="8" font-weight="600" fill="#f87171">CSRF</text>
  <rect x="826" y="414" width="72" height="24" rx="4" fill="rgba(251,191,36,0.1)" stroke="#fbbf24" stroke-width="0.7"/>
  <text x="862" y="430" text-anchor="middle" font-size="8" font-weight="600" fill="#fbbf24">Keycloak</text>
  <rect x="906" y="414" width="72" height="24" rx="4" fill="rgba(251,146,60,0.1)" stroke="#fb923c" stroke-width="0.7"/>
  <text x="942" y="430" text-anchor="middle" font-size="8" font-weight="600" fill="#fb923c">Flink</text>
  <rect x="986" y="414" width="72" height="24" rx="4" fill="rgba(230,82,111,0.1)" stroke="#E6526F" stroke-width="0.7"/>
  <text x="1022" y="430" text-anchor="middle" font-size="8" font-weight="600" fill="#E6526F">Debezium</text>
  <text x="972" y="468" text-anchor="middle" font-size="8" fill="#64748b">topologySpreadConstraints &#x2022; PDB</text>

  <!-- ═══════════ ROW 4: ISTIO AMBIENT MESH BAR ═══════════ -->
  <rect x="50" y="480" width="1100" height="26" rx="5" fill="rgba(70,107,176,0.1)" stroke="#466BB0" stroke-width="1"/>
  <text x="600" y="498" text-anchor="middle" font-size="10" font-weight="600" fill="#466BB0">Istio Ambient Mesh &#x2014; mTLS STRICT across all AZs &#x2022; Cross-zone service discovery &#x2022; L4/L7 traffic mgmt</text>

  <!-- ═══════════ ROW 5: DATABASE TIER ═══════════ -->
  <text x="228" y="526" text-anchor="middle" font-size="9" font-weight="600" fill="#336791">DB Subnet 10.0.100.0/24</text>
  <text x="600" y="526" text-anchor="middle" font-size="9" font-weight="600" fill="#336791">DB Subnet 10.0.101.0/24</text>
  <text x="972" y="526" text-anchor="middle" font-size="9" font-weight="600" fill="#336791">DB Subnet 10.0.102.0/24</text>

  <!-- Aurora Writers (AZ-a) -->
  <rect x="68" y="534" width="320" height="100" rx="7" fill="#1e293b" stroke="#336791" stroke-width="1.2" filter="url(#sh)"/>
  <text x="228" y="552" text-anchor="middle" font-size="11" font-weight="700" fill="#336791">Aurora Writers (Primary)</text>
  <rect x="82" y="560" width="72" height="22" rx="4" fill="rgba(51,103,145,0.15)" stroke="#336791" stroke-width="0.7"/>
  <text x="118" y="575" text-anchor="middle" font-size="8" font-weight="600" fill="#336791">ecom-db</text>
  <rect x="162" y="560" width="80" height="22" rx="4" fill="rgba(51,103,145,0.15)" stroke="#336791" stroke-width="0.7"/>
  <text x="202" y="575" text-anchor="middle" font-size="8" font-weight="600" fill="#336791">inventory-db</text>
  <rect x="250" y="560" width="80" height="22" rx="4" fill="rgba(51,103,145,0.15)" stroke="#336791" stroke-width="0.7"/>
  <text x="290" y="575" text-anchor="middle" font-size="8" font-weight="600" fill="#336791">analytics-db</text>
  <rect x="82" y="590" width="80" height="22" rx="4" fill="rgba(51,103,145,0.15)" stroke="#336791" stroke-width="0.7"/>
  <text x="122" y="605" text-anchor="middle" font-size="8" font-weight="600" fill="#336791">keycloak-db</text>
  <text x="228" y="628" text-anchor="middle" font-size="8" fill="#94a3b8">Synchronous replication &#x2192;</text>

  <!-- Aurora Readers (AZ-b) -->
  <rect x="440" y="534" width="320" height="100" rx="7" fill="#1e293b" stroke="#a78bfa" stroke-width="1" filter="url(#sh)"/>
  <text x="600" y="552" text-anchor="middle" font-size="11" font-weight="700" fill="#a78bfa">Aurora Readers (Standby)</text>
  <rect x="454" y="560" width="72" height="22" rx="4" fill="rgba(139,92,246,0.1)" stroke="#a78bfa" stroke-width="0.7"/>
  <text x="490" y="575" text-anchor="middle" font-size="8" font-weight="600" fill="#a78bfa">ecom-db</text>
  <rect x="534" y="560" width="80" height="22" rx="4" fill="rgba(139,92,246,0.1)" stroke="#a78bfa" stroke-width="0.7"/>
  <text x="574" y="575" text-anchor="middle" font-size="8" font-weight="600" fill="#a78bfa">inventory-db</text>
  <rect x="622" y="560" width="80" height="22" rx="4" fill="rgba(139,92,246,0.1)" stroke="#a78bfa" stroke-width="0.7"/>
  <text x="662" y="575" text-anchor="middle" font-size="8" font-weight="600" fill="#a78bfa">analytics-db</text>
  <rect x="454" y="590" width="80" height="22" rx="4" fill="rgba(139,92,246,0.1)" stroke="#a78bfa" stroke-width="0.7"/>
  <text x="494" y="605" text-anchor="middle" font-size="8" font-weight="600" fill="#a78bfa">keycloak-db</text>
  <text x="600" y="628" text-anchor="middle" font-size="8" fill="#94a3b8">Auto-failover ~30s &#x2022; DNS auto-update</text>

  <!-- Aurora Storage Layer (AZ-c) -->
  <rect x="812" y="534" width="320" height="100" rx="7" fill="rgba(51,103,145,0.04)" stroke="#336791" stroke-width="0.8" stroke-dasharray="3,2"/>
  <text x="972" y="556" text-anchor="middle" font-size="11" font-weight="700" fill="#336791">Aurora Storage Layer</text>
  <text x="972" y="576" text-anchor="middle" font-size="9" fill="#94a3b8">6 copies of data across 3 AZs</text>
  <text x="972" y="594" text-anchor="middle" font-size="9" fill="#64748b">Survives loss of 2 copies (reads)</text>
  <text x="972" y="610" text-anchor="middle" font-size="9" fill="#64748b">Survives loss of 3 copies (writes)</text>
  <text x="972" y="628" text-anchor="middle" font-size="8" fill="#94a3b8">Quorum-based, log-structured</text>

  <!-- DB replication arrows -->
  <line x1="388" y1="575" x2="440" y2="575" stroke="#a78bfa" stroke-width="1.2" marker-end="url(#ar-db)"/>
  <line x1="388" y1="601" x2="440" y2="601" stroke="#a78bfa" stroke-width="1.2" marker-end="url(#ar-db)"/>

  <!-- ═══════════ ROW 6: MESSAGING / CACHE ═══════════ -->
  <!-- MSK Brokers -->
  <rect x="68" y="648" width="320" height="48" rx="7" fill="#1e293b" stroke="#e2e8f0" stroke-width="1" filter="url(#sh)"/>
  <text x="228" y="668" text-anchor="middle" font-size="11" font-weight="700" fill="#e2e8f0">MSK Broker 1</text>
  <text x="228" y="684" text-anchor="middle" font-size="9" fill="#64748b">Kafka 3.6 &#x2022; Zone A</text>

  <rect x="440" y="648" width="320" height="48" rx="7" fill="#1e293b" stroke="#e2e8f0" stroke-width="1" filter="url(#sh)"/>
  <text x="600" y="668" text-anchor="middle" font-size="11" font-weight="700" fill="#e2e8f0">MSK Broker 2</text>
  <text x="600" y="684" text-anchor="middle" font-size="9" fill="#64748b">Kafka 3.6 &#x2022; Zone B</text>

  <rect x="812" y="648" width="320" height="48" rx="7" fill="#1e293b" stroke="#e2e8f0" stroke-width="1" filter="url(#sh)"/>
  <text x="972" y="668" text-anchor="middle" font-size="11" font-weight="700" fill="#e2e8f0">MSK Broker 3</text>
  <text x="972" y="684" text-anchor="middle" font-size="9" fill="#64748b">Kafka 3.6 &#x2022; Zone C</text>

  <text x="600" y="710" text-anchor="middle" font-size="9" fill="#94a3b8">replication.factor=3 &#x2022; min.insync.replicas=2 &#x2022; Quorum survives 1 AZ loss</text>

  <!-- Redis -->
  <rect x="68" y="720" width="320" height="40" rx="7" fill="#1e293b" stroke="#DC382D" stroke-width="1.2" filter="url(#sh)"/>
  <text x="228" y="744" text-anchor="middle" font-size="11" font-weight="700" fill="#DC382D">Redis Primary</text>

  <rect x="440" y="720" width="320" height="40" rx="7" fill="#1e293b" stroke="#DC382D" stroke-width="0.8" filter="url(#sh)"/>
  <text x="600" y="744" text-anchor="middle" font-size="11" font-weight="600" fill="#f87171">Redis Replica 1</text>

  <rect x="812" y="720" width="320" height="40" rx="7" fill="#1e293b" stroke="#DC382D" stroke-width="0.8" filter="url(#sh)"/>
  <text x="972" y="744" text-anchor="middle" font-size="11" font-weight="600" fill="#f87171">Redis Replica 2</text>

  <!-- Redis replication arrows -->
  <line x1="388" y1="740" x2="440" y2="740" stroke="#DC382D" stroke-width="1" marker-end="url(#ar-red)" stroke-dasharray="4,2"/>
  <line x1="760" y1="740" x2="812" y2="740" stroke="#DC382D" stroke-width="1" marker-end="url(#ar-red)" stroke-dasharray="4,2"/>

  <text x="600" y="776" text-anchor="middle" font-size="9" fill="#94a3b8">ElastiCache Multi-AZ &#x2022; Automatic failover ~30s &#x2022; DNS auto-update &#x2022; CSRF tokens + session cache</text>

  <!-- ═══════════ ROW 7: HA SUMMARY BAR ═══════════ -->
  <rect x="50" y="790" width="1100" height="36" rx="6" fill="rgba(16,185,129,0.06)" stroke="#10b981" stroke-width="1"/>
  <text x="600" y="812" text-anchor="middle" font-size="10" font-weight="700" fill="#10b981">HA Summary: AWS-managed control plane &#x2022; 3 NAT GWs &#x2022; Nodes across 3 AZs &#x2022; Aurora 6-copy storage &#x2022; MSK 3-broker quorum &#x2022; Redis Multi-AZ &#x2022; Pod topology spread</text>

  <!-- ═══════════ ROW 8: TERRAFORM PIPELINE ═══════════ -->
  <rect x="50" y="834" width="1100" height="54" rx="8" fill="rgba(16,185,129,0.03)" stroke="#10b981" stroke-width="0.8" stroke-dasharray="4,3"/>
  <text x="75" y="852" font-size="10" font-weight="700" fill="#10b981">Terraform Pipeline</text>
  <rect x="75" y="858" width="100" height="22" rx="4" fill="#1e293b" stroke="#10b981" stroke-width="0.8"/>
  <text x="125" y="873" text-anchor="middle" font-size="9" font-weight="600" fill="#10b981">terraform init</text>
  <line x1="175" y1="869" x2="192" y2="869" stroke="#64748b" stroke-width="1" marker-end="url(#ar)"/>
  <rect x="192" y="858" width="105" height="22" rx="4" fill="#1e293b" stroke="#10b981" stroke-width="0.8"/>
  <text x="244" y="873" text-anchor="middle" font-size="9" font-weight="600" fill="#10b981">terraform plan</text>
  <line x1="297" y1="869" x2="314" y2="869" stroke="#64748b" stroke-width="1" marker-end="url(#ar)"/>
  <rect x="314" y="858" width="110" height="22" rx="4" fill="#1e293b" stroke="#10b981" stroke-width="0.8"/>
  <text x="369" y="873" text-anchor="middle" font-size="9" font-weight="600" fill="#10b981">terraform apply</text>
  <line x1="424" y1="869" x2="441" y2="869" stroke="#64748b" stroke-width="1" marker-end="url(#ar)"/>
  <rect x="441" y="858" width="110" height="22" rx="4" fill="#1e293b" stroke="#ff9900" stroke-width="0.8"/>
  <text x="496" y="873" text-anchor="middle" font-size="9" font-weight="600" fill="#ff9900">Push to ECR</text>
  <line x1="551" y1="869" x2="568" y2="869" stroke="#64748b" stroke-width="1" marker-end="url(#ar)"/>
  <rect x="568" y="858" width="120" height="22" rx="4" fill="#1e293b" stroke="#3b82f6" stroke-width="0.8"/>
  <text x="628" y="873" text-anchor="middle" font-size="9" font-weight="600" fill="#3b82f6">Deploy K8s Apps</text>
  <line x1="688" y1="869" x2="705" y2="869" stroke="#64748b" stroke-width="1" marker-end="url(#ar)"/>
  <rect x="705" y="858" width="120" height="22" rx="4" fill="#1e293b" stroke="#ef4444" stroke-width="0.8"/>
  <text x="765" y="873" text-anchor="middle" font-size="9" font-weight="600" fill="#ef4444">Chaos Test AZ</text>
  <line x1="825" y1="869" x2="842" y2="869" stroke="#64748b" stroke-width="1" marker-end="url(#ar)"/>
  <rect x="842" y="858" width="120" height="22" rx="4" fill="#1e293b" stroke="#a78bfa" stroke-width="0.8"/>
  <text x="902" y="873" text-anchor="middle" font-size="9" font-weight="600" fill="#a78bfa">Verify HA</text>
  <line x1="962" y1="869" x2="979" y2="869" stroke="#64748b" stroke-width="1" marker-end="url(#ar)"/>
  <rect x="979" y="858" width="110" height="22" rx="4" fill="#1e293b" stroke="#fbbf24" stroke-width="0.8"/>
  <text x="1034" y="873" text-anchor="middle" font-size="9" font-weight="600" fill="#fbbf24">Smoke Test</text>

  <!-- ═══════════ FOOTER ═══════════ -->
  <text x="600" y="912" text-anchor="middle" font-size="10" fill="#475569">Every component spans 3 AZs &#x2022; Automatic failover at every layer &#x2022; Zero manual intervention for AZ failure</text>
  <text x="600" y="932" text-anchor="middle" font-size="10" fill="#475569">Control plane managed by AWS &#x2022; ENIs injected into customer VPC &#x2022; etcd replicated across all AZs</text>
  <text x="600" y="960" text-anchor="middle" font-size="11" fill="#64748b" font-weight="600">BookStore Platform &#x2022; AWS EKS Multi-AZ HA Architecture &#x2022; Terraform IaC</text>
</svg>
